<?xml version="1.0" standalone="no"?>
<!DOCTYPE svg PUBLIC "-//W3C//DTD SVG 20010904//EN"
 "http://www.w3.org/TR/2001/REC-SVG-20010904/DTD/svg10.dtd">
<svg version="1.0" xmlns="http://www.w3.org/2000/svg"
 width="48.000000pt" height="48.000000pt" viewBox="0 0 48.000000 48.000000"
 preserveAspectRatio="xMidYMid meet">

<g transform="translate(0.000000,48.000000) scale(0.100000,-0.100000)"
fill="#000000" stroke="none">
<path d="M165 360 c-30 -19 -65 -73 -65 -97 0 -7 -7 -13 -15 -13 -34 0 -13
-63 38 -117 27 -29 29 -35 19 -58 -7 -14 -12 -28 -12 -30 0 -3 50 -5 110 -5
61 0 110 2 110 5 0 2 -5 16 -12 30 -10 23 -8 29 19 58 51 54 72 117 38 117 -8
0 -15 5 -15 11 0 27 -35 80 -65 99 -42 26 -110 26 -150 0z m134 -4 c33 -17 51
-54 51 -102 0 -54 -53 -104 -110 -104 -81 0 -134 87 -99 163 23 51 101 72 158
43z"/>
</g>
</svg>
