<?xml version="1.0" standalone="no"?>
<!DOCTYPE svg PUBLIC "-//W3C//DTD SVG 20010904//EN"
 "http://www.w3.org/TR/2001/REC-SVG-20010904/DTD/svg10.dtd">
<svg version="1.0" xmlns="http://www.w3.org/2000/svg"
 width="48.000000pt" height="48.000000pt" viewBox="0 0 48.000000 48.000000"
 preserveAspectRatio="xMidYMid meet">

<g transform="translate(0.000000,48.000000) scale(0.100000,-0.100000)"
fill="#000000" stroke="none">
<path d="M197 444 c-4 -4 -7 -17 -7 -30 0 -32 -42 -57 -75 -44 -35 13 -32 15
-55 -30 l-20 -39 24 -16 c31 -20 30 -68 -2 -90 l-22 -16 20 -40 c23 -44 20
-42 55 -29 34 13 73 -11 77 -48 3 -25 7 -27 48 -27 41 0 45 2 48 27 4 37 43
61 77 48 35 -13 32 -15 55 29 l20 40 -23 18 c-13 10 -23 29 -23 43 0 14 10 33
23 43 l23 18 -20 40 c-23 44 -20 42 -55 29 -34 -13 -73 11 -77 48 -3 24 -8 27
-43 30 -23 2 -44 0 -48 -4z m79 -141 c-4 -9 -14 -45 -22 -80 -10 -39 -22 -63
-30 -63 -18 0 -18 10 6 91 14 47 26 69 36 69 11 0 14 -5 10 -17z m-100 -59
c-15 -10 -15 -12 -1 -18 8 -3 15 -15 15 -26 l0 -20 -40 20 c-50 25 -51 44 -2
69 33 17 37 17 41 3 2 -8 -4 -21 -13 -28z m194 -9 c0 -8 -18 -24 -40 -35 -40
-20 -40 -20 -40 -1 0 11 7 24 16 29 15 8 15 10 0 15 -9 4 -16 16 -16 27 l0 20
40 -20 c22 -11 40 -27 40 -35z"/>
</g>
</svg>
