<?xml version="1.0" standalone="no"?>
<!DOCTYPE svg PUBLIC "-//W3C//DTD SVG 20010904//EN"
 "http://www.w3.org/TR/2001/REC-SVG-20010904/DTD/svg10.dtd">
<svg version="1.0" xmlns="http://www.w3.org/2000/svg"
 width="64.000000pt" height="64.000000pt" viewBox="0 0 64.000000 64.000000"
 preserveAspectRatio="xMidYMid meet">

<g transform="translate(0.000000,64.000000) scale(0.100000,-0.100000)"
fill="#000000" stroke="none">
<path d="M310 435 c-34 -34 -40 -45 -26 -45 17 0 18 -6 12 -47 l-6 -47 40 39
c43 42 49 55 25 55 -15 0 -15 12 2 73 6 25 2 22 -47 -28z"/>
<path d="M313 203 c9 -2 23 -2 30 0 6 3 -1 5 -18 5 -16 0 -22 -2 -12 -5z"/>
<path d="M300 160 c0 -5 9 -10 20 -10 11 0 20 5 20 10 0 6 -9 10 -20 10 -11 0
-20 -4 -20 -10z"/>
<path d="M245 100 c-12 -20 7 -30 63 -32 l57 -1 -60 -6 c-44 -4 -60 -10 -60
-21 0 -12 16 -16 77 -18 l76 -3 0 46 0 45 -73 0 c-41 0 -77 -4 -80 -10z"/>
</g>
</svg>
