<?xml version="1.0" standalone="no"?>
<!DOCTYPE svg PUBLIC "-//W3C//DTD SVG 20010904//EN"
 "http://www.w3.org/TR/2001/REC-SVG-20010904/DTD/svg10.dtd">
<svg version="1.0" xmlns="http://www.w3.org/2000/svg"
 width="770.000000pt" height="350.000000pt" viewBox="0 0 770.000000 350.000000"
 preserveAspectRatio="xMidYMid meet">

<g transform="translate(0.000000,350.000000) scale(0.100000,-0.100000)"
fill="#000000" stroke="none">
<path d="M2640 2994 c0 -9 5 -14 12 -12 18 6 21 28 4 28 -9 0 -16 -7 -16 -16z"/>
<path d="M2880 2870 c0 -118 2 -140 15 -140 12 0 15 15 15 73 0 83 13 111 51
105 23 -3 24 -6 27 -90 2 -69 6 -88 17 -88 12 0 15 18 15 95 0 83 -2 96 -19
105 -28 14 -52 12 -73 -7 -17 -15 -18 -14 -18 35 0 40 -4 52 -15 52 -13 0 -15
-22 -15 -140z"/>
<path d="M3450 2870 c0 -118 2 -140 15 -140 13 0 15 22 15 140 0 118 -2 140
-15 140 -13 0 -15 -22 -15 -140z"/>
<path d="M2360 2866 c0 -114 2 -136 15 -136 12 0 15 19 16 108 l1 107 36 -107
c20 -60 41 -108 47 -108 6 0 28 51 48 113 l36 112 1 -112 c0 -94 3 -113 15
-113 13 0 15 22 15 135 0 134 0 135 -23 135 -20 0 -26 -13 -57 -112 l-34 -111
-36 109 c-30 90 -40 110 -58 112 -22 3 -22 1 -22 -132z"/>
<path d="M2640 2834 c0 -80 3 -105 13 -102 8 3 13 36 15 106 2 86 0 102 -13
102 -12 0 -15 -17 -15 -106z"/>
<path d="M2730 2915 c-18 -19 -23 -36 -23 -80 0 -65 28 -105 73 -105 27 0 70
36 70 58 0 19 -24 14 -38 -8 -14 -22 -42 -26 -60 -8 -12 12 -16 95 -6 122 8
20 48 21 64 1 13 -16 40 -21 40 -7 0 5 -9 18 -20 30 -28 30 -71 28 -100 -3z"/>
<path d="M3089 2921 c-29 -23 -18 -39 15 -22 34 19 70 11 74 -16 3 -21 -1 -23
-37 -23 -69 0 -102 -55 -65 -108 18 -27 57 -29 82 -4 16 17 18 17 33 -2 11
-13 22 -17 35 -12 18 7 18 8 2 20 -14 10 -18 28 -18 80 0 53 -4 70 -20 86 -25
25 -71 26 -101 1z m91 -99 c0 -48 -69 -85 -84 -46 -9 24 2 52 22 57 40 11 62
7 62 -11z"/>
<path d="M3280 2922 c-23 -19 -37 -84 -26 -127 15 -61 80 -84 127 -46 18 14
21 23 13 31 -8 8 -14 7 -24 -5 -7 -8 -26 -15 -41 -15 -22 0 -32 6 -39 26 -16
41 -13 44 55 44 71 0 73 3 54 59 -18 52 -76 68 -119 33z m91 -39 c8 -22 6 -23
-41 -23 -54 0 -55 1 -39 31 15 28 69 22 80 -8z"/>
<path d="M3530 2750 c0 -11 7 -20 15 -20 8 0 15 9 15 20 0 11 -7 20 -15 20 -8
0 -15 -9 -15 -20z"/>
</g>
</svg>
