<svg width="0" height="0" class="hidden"><symbol version="1.0" xmlns="http://www.w3.org/2000/svg" preserveAspectRatio="xMidYMid meet" viewBox="0 0 48.000000 48.000000" id="icons8-backend-development-48"><g transform="translate(0.000000,48.000000) scale(0.100000,-0.100000)" fill="#000000" stroke="none"><path d="M197 444 c-4 -4 -7 -17 -7 -30 0 -32 -42 -57 -75 -44 -35 13 -32 15
-55 -30 l-20 -39 24 -16 c31 -20 30 -68 -2 -90 l-22 -16 20 -40 c23 -44 20
-42 55 -29 34 13 73 -11 77 -48 3 -25 7 -27 48 -27 41 0 45 2 48 27 4 37 43
61 77 48 35 -13 32 -15 55 29 l20 40 -23 18 c-13 10 -23 29 -23 43 0 14 10 33
23 43 l23 18 -20 40 c-23 44 -20 42 -55 29 -34 -13 -73 11 -77 48 -3 24 -8 27
-43 30 -23 2 -44 0 -48 -4z m79 -141 c-4 -9 -14 -45 -22 -80 -10 -39 -22 -63
-30 -63 -18 0 -18 10 6 91 14 47 26 69 36 69 11 0 14 -5 10 -17z m-100 -59
c-15 -10 -15 -12 -1 -18 8 -3 15 -15 15 -26 l0 -20 -40 20 c-50 25 -51 44 -2
69 33 17 37 17 41 3 2 -8 -4 -21 -13 -28z m194 -9 c0 -8 -18 -24 -40 -35 -40
-20 -40 -20 -40 -1 0 11 7 24 16 29 15 8 15 10 0 15 -9 4 -16 16 -16 27 l0 20
40 -20 c22 -11 40 -27 40 -35z"></path></g></symbol><symbol version="1.0" xmlns="http://www.w3.org/2000/svg" preserveAspectRatio="xMidYMid meet" viewBox="0 0 64.000000 64.000000" id="icons8-bulb-64_1"><g transform="translate(0.000000,64.000000) scale(0.100000,-0.100000)" fill="#000000" stroke="none"><path d="M310 435 c-34 -34 -40 -45 -26 -45 17 0 18 -6 12 -47 l-6 -47 40 39
c43 42 49 55 25 55 -15 0 -15 12 2 73 6 25 2 22 -47 -28z"></path><path d="M313 203 c9 -2 23 -2 30 0 6 3 -1 5 -18 5 -16 0 -22 -2 -12 -5z"></path><path d="M300 160 c0 -5 9 -10 20 -10 11 0 20 5 20 10 0 6 -9 10 -20 10 -11 0
-20 -4 -20 -10z"></path><path d="M245 100 c-12 -20 7 -30 63 -32 l57 -1 -60 -6 c-44 -4 -60 -10 -60
-21 0 -12 16 -16 77 -18 l76 -3 0 46 0 45 -73 0 c-41 0 -77 -4 -80 -10z"></path></g></symbol><symbol version="1.0" xmlns="http://www.w3.org/2000/svg" preserveAspectRatio="xMidYMid meet" viewBox="0 0 48.000000 48.000000" id="icons8-webcam-48"><g transform="translate(0.000000,48.000000) scale(0.100000,-0.100000)" fill="#000000" stroke="none"><path d="M165 360 c-30 -19 -65 -73 -65 -97 0 -7 -7 -13 -15 -13 -34 0 -13
-63 38 -117 27 -29 29 -35 19 -58 -7 -14 -12 -28 -12 -30 0 -3 50 -5 110 -5
61 0 110 2 110 5 0 2 -5 16 -12 30 -10 23 -8 29 19 58 51 54 72 117 38 117 -8
0 -15 5 -15 11 0 27 -35 80 -65 99 -42 26 -110 26 -150 0z m134 -4 c33 -17 51
-54 51 -102 0 -54 -53 -104 -110 -104 -81 0 -134 87 -99 163 23 51 101 72 158
43z"></path></g></symbol></svg>