<?xml version="1.0" standalone="no"?>
<!DOCTYPE svg PUBLIC "-//W3C//DTD SVG 20010904//EN"
 "http://www.w3.org/TR/2001/REC-SVG-20010904/DTD/svg10.dtd">
<svg version="1.0" xmlns="http://www.w3.org/2000/svg"
 width="770.000000pt" height="350.000000pt" viewBox="0 0 770.000000 350.000000"
 preserveAspectRatio="xMidYMid meet">

<g transform="translate(0.000000,350.000000) scale(0.100000,-0.100000)"
fill="#000000" stroke="none">
<path d="M2572 1958 c3 -43 3 -43 46 -46 l42 -3 0 45 0 46 -46 0 -45 0 3 -42z"/>
<path d="M3320 1625 l0 -375 44 0 45 0 3 193 c3 214 8 235 68 275 48 33 123
27 157 -12 22 -27 23 -32 23 -242 l0 -214 45 0 45 0 0 223 c0 243 -5 269 -62
310 -64 48 -202 28 -253 -36 l-25 -32 0 143 0 142 -45 0 -45 0 0 -375z"/>
<path d="M5040 1625 l0 -375 45 0 45 0 0 375 0 375 -45 0 -45 0 0 -375z"/>
<path d="M1737 1964 c-4 -4 -7 -166 -7 -361 l0 -353 40 0 40 0 0 297 c0 171 4
293 9 288 5 -6 17 -35 26 -65 10 -30 58 -158 106 -285 l87 -230 35 -3 34 -3
106 283 c57 156 107 290 110 298 3 8 6 -119 6 -282 l1 -298 45 0 45 0 -2 358
-3 357 -57 3 c-70 4 -53 33 -183 -320 -54 -147 -101 -266 -103 -264 -2 2 -19
48 -38 103 -18 54 -67 184 -107 288 l-73 190 -55 3 c-30 2 -58 0 -62 -4z"/>
<path d="M2925 1798 c-16 -6 -45 -21 -63 -35 -120 -89 -115 -398 8 -481 71
-47 172 -54 246 -15 43 22 91 84 96 123 3 23 -1 25 -39 28 -40 3 -43 1 -57
-32 -39 -93 -168 -97 -221 -6 -28 49 -30 247 -2 298 38 69 147 81 200 22 15
-16 27 -37 27 -45 0 -21 78 -21 86 0 16 42 -55 126 -123 144 -47 13 -118 13
-158 -1z"/>
<path d="M4010 1799 c-50 -15 -85 -44 -104 -83 -23 -49 -21 -54 28 -58 42 -3
46 -1 60 30 18 37 49 52 107 52 80 0 119 -39 119 -121 l0 -39 -97 0 c-117 0
-162 -11 -207 -51 -63 -55 -69 -175 -13 -238 68 -75 201 -67 277 16 22 23 43
43 45 43 3 0 5 -11 5 -25 0 -14 11 -37 25 -51 22 -21 33 -25 78 -22 48 3 52 5
55 31 3 23 0 27 -21 27 -46 0 -52 20 -57 216 -6 203 -10 217 -80 258 -39 23
-165 31 -220 15z m210 -321 c-1 -96 -86 -174 -180 -165 -56 6 -80 33 -80 91 0
83 49 115 178 116 l82 0 0 -42z"/>
<path d="M4586 1795 c-47 -17 -91 -57 -119 -110 -32 -62 -36 -220 -7 -297 46
-123 173 -176 317 -133 52 16 128 84 120 108 -2 6 -18 16 -35 21 -28 8 -34 5
-57 -22 -32 -38 -83 -56 -142 -49 -70 8 -115 59 -128 150 l-7 47 197 0 198 0
-6 65 c-15 155 -98 236 -242 235 -27 -1 -67 -7 -89 -15z m172 -75 c32 -20 52
-54 66 -112 l6 -28 -150 0 -149 0 6 33 c9 51 31 86 66 107 42 26 112 26 155 0z"/>
<path d="M2570 1525 l0 -275 45 0 45 0 0 275 0 275 -45 0 -45 0 0 -275z"/>
</g>
</svg>
